<svg width="211" height="127" viewBox="0 0 211 127" fill="none" xmlns="http://www.w3.org/2000/svg">
<path d="M59.968 46.087C59.968 48.6551 60.2457 50.7374 60.7315 52.2643C61.2868 53.7913 61.9809 55.4571 62.9526 57.2617C63.2996 57.817 63.4384 58.3722 63.4384 58.8581C63.4384 59.5522 63.022 60.2462 62.1197 60.9403L57.747 63.8554C57.1223 64.2719 56.4977 64.4801 55.9424 64.4801C55.2483 64.4801 54.5542 64.1331 53.8601 63.5084C52.8884 62.4673 52.0555 61.3568 51.3615 60.2462C50.6674 59.0663 49.9733 57.7475 49.2098 56.1512C43.796 62.5367 36.994 65.7295 28.8039 65.7295C22.9736 65.7295 18.3233 64.0637 14.9223 60.7321C11.5213 57.4005 9.78613 52.9584 9.78613 47.4058C9.78613 41.5061 11.8684 36.717 16.1023 33.1077C20.3361 29.4985 25.9582 27.6939 33.1072 27.6939C35.4671 27.6939 37.8963 27.9022 40.4644 28.2492C43.0325 28.5962 45.67 29.1515 48.4463 29.7762V24.7094C48.4463 19.4344 47.3358 15.7558 45.1842 13.6041C42.9631 11.4525 39.2151 10.4114 33.8707 10.4114C31.4414 10.4114 28.9427 10.689 26.3746 11.3137C23.8065 11.9383 21.3078 12.7018 18.8786 13.6735C17.768 14.1594 16.9351 14.437 16.4493 14.5758C15.9634 14.7147 15.6164 14.7841 15.3388 14.7841C14.3671 14.7841 13.8812 14.09 13.8812 12.6324V9.23143C13.8812 8.12091 14.02 7.28801 14.3671 6.80216C14.7141 6.3163 15.3388 5.83045 16.3105 5.34459C18.7398 4.09525 21.6549 3.05413 25.0559 2.22124C28.4569 1.31893 32.0661 0.902488 35.8835 0.902488C44.143 0.902488 50.1815 2.7765 54.0684 6.52453C57.8858 10.2726 59.8292 15.964 59.8292 23.5989V46.087H59.968ZM31.7884 56.637C34.0789 56.637 36.4388 56.2206 38.9375 55.3877C41.4361 54.5548 43.6572 53.0278 45.5312 50.9456C46.6417 49.6268 47.4746 48.1693 47.8911 46.5035C48.3075 44.8377 48.5851 42.8249 48.5851 40.465V37.5499C46.5723 37.064 44.4207 36.6476 42.1996 36.3699C39.9786 36.0923 37.8269 35.9535 35.6753 35.9535C31.025 35.9535 27.624 36.8558 25.3335 38.7298C23.043 40.6038 21.9325 43.2413 21.9325 46.7117C21.9325 49.9739 22.7654 52.4031 24.5006 54.0689C26.1664 55.8041 28.5957 56.637 31.7884 56.637ZM87.523 64.1331C86.2736 64.1331 85.4407 63.9249 84.8855 63.439C84.3302 63.0225 83.8444 62.0508 83.4279 60.7321L67.1171 7.07979C66.7006 5.69163 66.4924 4.78933 66.4924 4.30347C66.4924 3.19295 67.0476 2.56828 68.1582 2.56828H74.9602C76.2789 2.56828 77.1812 2.7765 77.6671 3.26236C78.2223 3.6788 78.6388 4.65051 79.0552 5.96926L90.7157 51.9173L101.543 5.96926C101.89 4.58111 102.307 3.6788 102.862 3.26236C103.417 2.84591 104.389 2.56828 105.638 2.56828H111.191C112.51 2.56828 113.412 2.7765 113.967 3.26236C114.523 3.6788 115.009 4.65051 115.286 5.96926L126.253 52.4725L138.26 5.96926C138.677 4.58111 139.162 3.6788 139.648 3.26236C140.204 2.84591 141.106 2.56828 142.355 2.56828H148.81C149.921 2.56828 150.545 3.12354 150.545 4.30347C150.545 4.65051 150.476 4.99755 150.407 5.414C150.337 5.83045 150.198 6.38571 149.921 7.1492L133.193 60.8015C132.777 62.1897 132.291 63.092 131.736 63.5084C131.181 63.9249 130.278 64.2025 129.098 64.2025H123.129C121.81 64.2025 120.908 63.9943 120.353 63.5084C119.798 63.0225 119.312 62.1202 119.034 60.7321L108.276 15.964L97.5871 60.6627C97.2401 62.0508 96.8236 62.9531 96.2684 63.439C95.7131 63.9249 94.7414 64.1331 93.4921 64.1331H87.523ZM176.712 66.0071C173.103 66.0071 169.494 65.5906 166.023 64.7577C162.553 63.9249 159.846 63.0225 158.041 61.9814C156.931 61.3568 156.167 60.6627 155.89 60.038C155.612 59.4133 155.473 58.7193 155.473 58.0946V54.5548C155.473 53.0972 156.029 52.4031 157.07 52.4031C157.486 52.4031 157.903 52.4725 158.319 52.6114C158.735 52.7502 159.36 53.0278 160.054 53.3054C162.414 54.3466 164.982 55.1795 167.689 55.7347C170.465 56.29 173.172 56.5676 175.949 56.5676C180.321 56.5676 183.722 55.8041 186.082 54.2772C188.442 52.7502 189.691 50.5291 189.691 47.6834C189.691 45.74 189.067 44.1436 187.817 42.8249C186.568 41.5061 184.208 40.3262 180.807 39.2156L170.743 36.0923C165.676 34.4959 161.928 32.136 159.638 29.0127C157.347 25.9587 156.167 22.5577 156.167 18.9485C156.167 16.0334 156.792 13.4653 158.041 11.2443C159.291 9.02321 160.957 7.07979 163.039 5.55282C165.121 3.95643 167.481 2.7765 170.257 1.94361C173.034 1.11071 175.949 0.763672 179.003 0.763672C180.53 0.763672 182.126 0.83308 183.653 1.0413C185.249 1.24953 186.707 1.52716 188.164 1.80479C189.553 2.15183 190.871 2.49887 192.121 2.91532C193.37 3.33176 194.342 3.74821 195.036 4.16466C196.008 4.71992 196.702 5.27518 197.118 5.89986C197.535 6.45512 197.743 7.21861 197.743 8.19032V11.4525C197.743 12.9101 197.187 13.6735 196.146 13.6735C195.591 13.6735 194.689 13.3959 193.509 12.8406C189.553 11.036 185.11 10.1337 180.183 10.1337C176.226 10.1337 173.103 10.7584 170.951 12.0772C168.8 13.3959 167.689 15.4087 167.689 18.2545C167.689 20.1979 168.383 21.8637 169.771 23.1824C171.16 24.5012 173.728 25.8199 177.406 26.9999L187.262 30.1232C192.259 31.7196 195.869 33.9406 198.02 36.7864C200.172 39.6321 201.213 42.8943 201.213 46.5035C201.213 49.488 200.588 52.1949 199.408 54.5548C198.159 56.9147 196.493 58.9969 194.342 60.6627C192.19 62.3979 189.622 63.6472 186.637 64.5495C183.514 65.5212 180.252 66.0071 176.712 66.0071Z" fill="#252F3E"/>
<path fill-rule="evenodd" clip-rule="evenodd" d="M189.83 99.7394C166.995 116.605 133.818 125.559 105.291 125.559C65.3123 125.559 29.2896 110.775 2.08175 86.2048C-0.069893 84.2614 1.87353 81.6239 4.44162 83.1509C33.8706 100.225 70.1709 110.567 107.721 110.567C133.054 110.567 160.887 105.292 186.499 94.4644C190.316 92.7292 193.578 96.963 189.83 99.7394Z" fill="#FF9900"/>
<path fill-rule="evenodd" clip-rule="evenodd" d="M199.339 88.9116C196.424 85.1636 180.043 87.107 172.617 88.0093C170.396 88.2869 170.049 86.3435 172.061 84.886C185.11 75.7241 206.557 78.3616 209.056 81.4156C211.555 84.5389 208.362 105.986 196.146 116.258C194.272 117.855 192.467 117.022 193.3 114.94C196.077 108.068 202.254 92.5902 199.339 88.9116Z" fill="#FF9900"/>
</svg>
