<svg width="211" height="211" viewBox="0 0 211 211" fill="none" xmlns="http://www.w3.org/2000/svg">
<path d="M39.5625 184.625H140.667L184.625 140.667V39.5625C184.625 32.0896 178.91 26.375 171.438 26.375H39.5625C32.0896 26.375 26.375 32.0896 26.375 39.5625V171.438C26.375 178.91 32.0896 184.625 39.5625 184.625Z" fill="url(#paint0_linear_35_2892)"/>
<path opacity="0.05" d="M103.922 43.9847C80.7078 44.7892 61.7002 64.355 61.5419 87.609C61.4408 103.887 69.7929 118.415 83.5211 126.178V156.052C83.5211 159.687 86.4795 162.646 90.1148 162.646H92.3128V164.844C92.3128 168.479 95.2712 171.438 98.9065 171.438H112.094C115.729 171.438 118.688 168.479 118.688 164.844V162.646H120.886C124.521 162.646 127.479 159.687 127.479 156.052V126.116C141.296 117.98 149.459 103.887 149.459 87.9167C149.459 63.1506 128.759 43.2374 103.922 43.9847ZM95.7283 111.979C85.486 107.803 79.1253 98.4183 79.1253 87.4771C79.1253 72.6895 90.7127 61.1021 105.5 61.1021C120.288 61.1021 131.875 72.6895 131.875 87.4771C131.875 98.4183 125.514 107.808 114.956 112.12L109.896 114.657V127.479H101.104V114.657L95.7283 111.979Z" fill="black"/>
<path opacity="0.05" d="M136.271 184.625V145.942C136.271 140.601 140.6 136.271 145.941 136.271H184.625V140.667L140.68 184.625H136.271Z" fill="black"/>
<path opacity="0.07" d="M103.992 46.1828C81.9379 46.9432 63.8842 65.5332 63.7392 87.6223C63.6381 103.531 72.0253 117.672 85.7184 124.873V156.052C85.7184 158.474 87.6877 160.448 90.1142 160.448H94.51V164.844C94.51 167.266 96.4794 169.24 98.9059 169.24H112.093C114.52 169.24 116.489 167.266 116.489 164.844V160.448H120.885C123.312 160.448 125.281 158.474 125.281 156.052V124.842C139.071 117.211 147.26 103.504 147.26 87.9168C147.26 64.3859 127.756 45.2772 103.992 46.1828ZM94.9013 114.015C83.8106 109.496 76.9267 99.3284 76.9267 87.4772C76.9267 71.4544 89.4768 58.9043 105.5 58.9043C121.522 58.9043 134.073 71.4544 134.073 87.4772C134.073 99.3284 127.189 109.496 115.944 114.085L112.093 116.015V129.677H98.9059V116.015L94.9013 114.015ZM112.093 142.865V147.261H98.9059V142.865H112.093Z" fill="black"/>
<path d="M104.072 48.3807C83.196 49.1016 66.0786 66.7509 65.9423 87.6399C65.8412 103.14 74.2109 116.89 87.9215 123.523V156.052C87.9215 157.265 88.9061 158.25 90.1194 158.25H96.7087V164.844C96.7087 166.057 97.6934 167.042 98.9067 167.042H112.094C113.307 167.042 114.292 166.057 114.292 164.844V158.25H120.886C122.099 158.25 123.084 157.265 123.084 156.052V123.523C136.711 116.49 145.063 103.302 145.063 87.9168C145.063 65.4629 126.71 47.5983 104.072 48.3807ZM96.7087 149.458V140.667H114.292V149.458H96.7087ZM116.93 116.05L114.292 117.369V131.875H96.7087V117.369L94.0712 116.05C82.2025 111.215 74.7296 100.225 74.7296 87.4772C74.7296 70.3335 88.3567 56.7064 105.5 56.7064C122.644 56.7064 136.271 70.3335 136.271 87.4772C136.271 100.225 128.798 111.215 116.93 116.05Z" fill="white"/>
<path opacity="0.07" d="M138.469 184.625V147.7C138.469 142.601 142.601 138.469 147.7 138.469H184.625V140.667L140.667 184.625H138.469Z" fill="black"/>
<path d="M140.667 184.625V149.458C140.667 144.601 144.601 140.667 149.459 140.667H184.625L140.667 184.625Z" fill="#FEE119"/>
<defs>
<linearGradient id="paint0_linear_35_2892" x1="26.375" y1="105.5" x2="184.625" y2="105.5" gradientUnits="userSpaceOnUse">
<stop stop-color="#FEDE00"/>
<stop offset="1" stop-color="#FFD000"/>
</linearGradient>
</defs>
</svg>
