<svg width="39" height="39" viewBox="0 0 39 39" fill="none" xmlns="http://www.w3.org/2000/svg">
<path d="M19.5 29.25C26 29.25 27.625 22.75 27.625 22.75H11.375C11.375 22.75 13 29.25 19.5 29.25Z" fill="#07BDFA"/>
<path d="M19.5 3.25C10.5398 3.25 3.25 10.5398 3.25 19.5C3.25 28.4603 10.5398 35.75 19.5 35.75C28.4603 35.75 35.75 28.4603 35.75 19.5C35.75 10.5398 28.4603 3.25 19.5 3.25ZM19.5 32.5C12.3321 32.5 6.5 26.6679 6.5 19.5C6.5 12.3321 12.3321 6.5 19.5 6.5C26.6679 6.5 32.5 12.3321 32.5 19.5C32.5 26.6679 26.6679 32.5 19.5 32.5Z" fill="#07BDFA"/>
<path d="M21.125 19.5L24.375 19.5195C24.3945 18.7688 24.6903 17.875 26 17.875C27.3097 17.875 27.6055 18.7688 27.625 19.5H30.875C30.875 17.5403 29.5766 14.625 26 14.625C22.4234 14.625 21.125 17.5403 21.125 19.5ZM13 17.875C14.3098 17.875 14.6055 18.7688 14.625 19.5H17.875C17.875 17.5403 16.5766 14.625 13 14.625C9.42338 14.625 8.125 17.5403 8.125 19.5L11.375 19.5195C11.3945 18.7688 11.6902 17.875 13 17.875Z" fill="#07BDFA"/>
</svg>
