<svg width="211" height="211" viewBox="0 0 211 211" fill="none" xmlns="http://www.w3.org/2000/svg">
<path d="M206.604 129.062L196.964 136.372L187.35 129.677C187.35 128.974 187.35 128.226 187.306 127.479C187.306 126.776 187.306 126.028 187.262 125.281C186.647 107.962 182.251 89.4111 173.459 75.828C166.69 65.4098 158.03 60.4425 148.359 60.4425C138.205 60.4425 129.941 66.5088 120.797 79.6963C120.533 80.0919 120.226 80.4875 119.962 80.9271C119.786 81.1469 119.654 81.3667 119.478 81.6305C119.039 82.2898 118.599 82.9492 118.16 83.6525C114.203 89.8067 110.071 96.9719 105.588 104.884C105.192 105.632 104.752 106.379 104.357 107.126C104.225 107.302 104.093 107.522 104.005 107.698L103.082 109.324L97.6311 118.951C84.8393 141.59 81.5863 146.777 75.2124 155.261C64.003 170.163 54.4201 175.833 41.8041 175.833C26.8582 175.833 17.3632 169.371 11.5168 159.613C6.7253 151.7 4.39551 141.282 4.39551 129.413L26.2428 130.16C26.2428 137.897 27.9132 143.788 30.1551 147.392C33.0563 152.052 37.3203 153.854 41.7601 153.854C47.4307 153.854 52.7057 152.667 62.7282 138.776C70.7726 127.655 80.2676 112.094 86.6415 102.291L92.6638 93.1036L93.9386 91.0815L95.2574 89.1034L97.4553 85.7186C100.796 80.6194 104.401 75.2125 108.269 70.0255C108.709 69.41 109.148 68.7946 109.632 68.1792C110.071 67.5638 110.555 66.9484 110.994 66.3769C114.951 61.3217 119.127 56.6182 123.611 52.7498C131.743 45.6725 140.491 41.7603 149.326 41.7603C164.14 41.7603 178.251 50.3321 189.064 66.4209C200.098 82.8613 205.857 103.346 206.516 124.666C206.56 125.369 206.56 126.116 206.56 126.864C206.604 127.611 206.604 128.314 206.604 129.062Z" fill="#0081FB"/>
<path d="M21.6191 67.9418C31.6285 52.5344 46.082 41.7603 62.6542 41.7603C72.2547 41.7603 81.7937 44.5956 91.7591 52.7191C102.656 61.5986 114.275 76.2192 128.768 100.317L133.963 108.964C146.509 129.826 153.644 140.557 157.824 145.621C163.196 152.122 166.55 153.854 171.438 153.854C183.834 153.854 187.338 142.689 187.338 129.673L206.605 129.07C206.605 142.675 203.919 152.672 199.347 160.566C194.934 168.202 186.327 175.833 171.847 175.833C162.844 175.833 154.87 173.881 146.052 165.578C139.274 159.204 131.348 147.88 125.251 137.704L107.114 107.465C98.0143 92.2904 89.6666 80.9711 84.8356 75.8499C79.6397 70.3376 73.2218 63.7438 62.5619 63.7438C53.9329 63.7438 46.3457 69.7309 40.2135 78.9754L21.6191 67.9418Z" fill="url(#paint0_linear_35_2900)"/>
<path d="M62.6403 63.7394C54.0289 63.7394 46.4504 69.7265 40.3314 78.971C31.6761 92.0354 26.3747 111.491 26.3747 130.178C26.3747 137.884 26.3615 143.682 28.5726 147.26L11.6926 159.626C6.91872 151.687 4.39551 141.546 4.39551 129.677C4.39551 108.093 10.3519 85.3186 21.6184 67.9418C31.6145 52.5344 46.1867 41.7603 62.7282 41.7603L62.6403 63.7394Z" fill="url(#paint1_linear_35_2900)"/>
<path opacity="0.05" d="M95.2576 89.1034L93.9389 91.0815L92.6641 93.1036C95.7851 97.6313 99.3457 103.082 103.082 109.324L104.005 107.698C104.093 107.522 104.225 107.302 104.357 107.126C104.753 106.379 105.192 105.632 105.588 104.884C101.939 98.9061 98.4226 93.5872 95.2576 89.1034ZM109.632 68.1792C109.148 68.7947 108.709 69.4101 108.269 70.0255C111.478 74.0257 114.731 78.5534 118.16 83.6526C118.599 82.9492 119.039 82.2899 119.479 81.6305C119.654 81.3667 119.786 81.1469 119.962 80.9272C120.226 80.4876 120.534 80.0919 120.797 79.6963C117.457 74.773 114.204 70.3332 110.995 66.377C110.555 66.9484 110.072 67.5638 109.632 68.1792Z" fill="black"/>
<path opacity="0.07" d="M95.2582 89.1034L93.9395 91.0815C97.0605 95.5652 100.577 100.928 104.358 107.126C104.753 106.379 105.193 105.632 105.588 104.884C101.94 98.9061 98.4232 93.5871 95.2582 89.1034ZM108.27 70.0254C111.479 74.0257 114.732 78.5534 118.16 83.6525C118.6 82.9492 119.04 82.2898 119.479 81.6304C116.094 76.6192 112.798 72.1354 109.633 68.1792C109.149 68.7946 108.709 69.41 108.27 70.0254Z" fill="black"/>
<defs>
<linearGradient id="paint0_linear_35_2900" x1="185.962" y1="108.797" x2="59.4892" y2="108.797" gradientUnits="userSpaceOnUse">
<stop stop-color="#0081FB"/>
<stop offset="0.995" stop-color="#0064E1"/>
</linearGradient>
<linearGradient id="paint1_linear_35_2900" x1="33.5619" y1="144.491" x2="33.5619" y2="57.1984" gradientUnits="userSpaceOnUse">
<stop stop-color="#0081FB"/>
<stop offset="0.995" stop-color="#0064E1"/>
</linearGradient>
</defs>
</svg>
