<svg width="183" height="183" viewBox="0 0 183 183" fill="none" xmlns="http://www.w3.org/2000/svg">
<path d="M106.137 11.9102L106.064 47.1407L105.991 82.3713L102.628 74.1928V74.1718L98.2656 152.602C102.555 163.003 104.845 168.56 104.87 168.581C104.894 168.602 107.331 168.728 110.28 168.854C119.199 169.231 130.262 170.049 138.67 170.951C140.619 171.161 142.276 171.266 142.398 171.182C142.52 171.098 142.545 135.238 142.52 91.4725L142.447 11.9102H106.137Z" fill="url(#paint0_linear_35_2888)"/>
<path d="M40.4531 11.8047V91.4511C40.4531 135.259 40.5019 171.139 40.575 171.202C40.6481 171.265 43.7917 170.993 47.5933 170.636C51.3949 170.28 56.6343 169.818 59.2418 169.63C63.2384 169.336 75.2281 168.686 76.5928 168.665C77.007 168.665 77.0314 166.882 77.0801 134.923L77.1532 101.181L80.0532 108.228C80.4918 109.318 80.6381 109.654 81.0767 110.723L85.4388 32.3139C84.5128 30.0701 85.0002 31.2444 83.9523 28.686C80.3944 20.0251 77.3726 12.7064 77.2507 12.3709L77.007 11.7837H40.4531V11.8047Z" fill="url(#paint1_linear_35_2888)"/>
<path d="M40.4531 11.8047L77.1291 101.244V101.202L80.029 108.248C96.1372 147.484 104.788 168.538 104.837 168.58C104.861 168.601 107.298 168.727 110.247 168.853C119.166 169.23 130.23 170.048 138.637 170.95C140.563 171.16 142.244 171.264 142.342 171.18L105.982 82.3494V82.3704L102.619 74.1919C99.3296 66.2021 97.1364 60.8547 83.9038 28.6859C80.3458 20.0251 77.324 12.7064 77.2022 12.3709L76.9585 11.7837H58.7058L40.4531 11.8047Z" fill="#E30A17"/>
<defs>
<linearGradient id="paint0_linear_35_2888" x1="158.897" y1="131.019" x2="100.781" y2="156.541" gradientUnits="userSpaceOnUse">
<stop stop-color="#B20610"/>
<stop offset="0.255959" stop-color="#B20610"/>
<stop offset="1" stop-color="#590004"/>
</linearGradient>
<linearGradient id="paint1_linear_35_2888" x1="22.8298" y1="46.7287" x2="85.6802" y2="19.4459" gradientUnits="userSpaceOnUse">
<stop stop-color="#B20610"/>
<stop offset="0.255959" stop-color="#B20610"/>
<stop offset="1" stop-color="#590004"/>
</linearGradient>
</defs>
</svg>
