<svg width="31" height="29" viewBox="0 0 31 29" fill="none" xmlns="http://www.w3.org/2000/svg">
<path d="M30.5547 25.7109H3.00781V0.726562C3.00781 0.550391 2.86367 0.40625 2.6875 0.40625H0.445312C0.269141 0.40625 0.125 0.550391 0.125 0.726562V28.2734C0.125 28.4496 0.269141 28.5938 0.445312 28.5938H30.5547C30.7309 28.5938 30.875 28.4496 30.875 28.2734V26.0312C30.875 25.8551 30.7309 25.7109 30.5547 25.7109ZM7.24394 19.5329C7.36807 19.657 7.56826 19.657 7.69639 19.5329L13.2338 14.0235L18.3428 19.1646C18.4669 19.2887 18.6711 19.2887 18.7952 19.1646L29.822 8.1418C29.9461 8.01768 29.9461 7.81348 29.822 7.68936L28.2364 6.10381C28.1762 6.0442 28.0949 6.01076 28.0102 6.01076C27.9255 6.01076 27.8442 6.0442 27.784 6.10381L18.575 15.3088L13.474 10.1758C13.4138 10.1162 13.3325 10.0827 13.2478 10.0827C13.1631 10.0827 13.0818 10.1162 13.0216 10.1758L5.6624 17.4909C5.60279 17.5511 5.56935 17.6324 5.56935 17.7171C5.56935 17.8019 5.60279 17.8832 5.6624 17.9434L7.24394 19.5329Z" fill="#07BDFA"/>
</svg>
