<svg width="186" height="131" viewBox="0 0 186 131" fill="none" xmlns="http://www.w3.org/2000/svg">
<path d="M181.895 20.3984C180.828 16.4556 178.747 12.8611 175.859 9.97286C172.971 7.08463 169.376 5.00343 165.433 3.93653C150.999 0 92.9059 0 92.9059 0C92.9059 0 34.8123 0.119289 20.3784 4.05581C16.4356 5.12272 12.8411 7.20391 9.95289 10.0921C7.06466 12.9804 4.98346 16.5749 3.91655 20.5177C-0.449411 46.1647 -2.14331 85.2437 4.03584 109.865C5.10275 113.808 7.18394 117.402 10.0722 120.29C12.9604 123.179 16.5549 125.26 20.4977 126.327C34.9316 130.263 93.0252 130.263 93.0252 130.263C93.0252 130.263 151.119 130.263 165.553 126.327C169.496 125.26 173.09 123.179 175.978 120.29C178.866 117.402 180.948 113.808 182.015 109.865C186.619 84.182 188.039 45.1269 181.895 20.3984Z" fill="#FF0000"/>
<path d="M74.416 93.0454L122.609 65.1318L74.416 37.2183V93.0454Z" fill="white"/>
</svg>
